<svg width="32" height="32" viewBox="0 0 32 32" fill="none" xmlns="http://www.w3.org/2000/svg">
<g clip-path="url(#clip0_1827_9109)">
<path d="M13.1908 26.4305H13.9725V26.5771H13.6794V27.4076H13.484V26.5771H13.1908V26.4305ZM8.01221 24.2809L8.45191 23.1573L8.8916 24.2809H8.01221ZM8.74504 22.571H8.20763L7.27939 25.0626H6.00916V22.571H5.52061V25.4534H7.57252L7.86565 24.6718H8.98931L9.28244 25.4534H9.77099L8.74504 22.571ZM12.6046 26.4305H12.8V27.4076H12.6046V26.4305ZM19.6397 25.4534H19.1511V22.571H19.6397V25.4534ZM12.7023 23.8412C12.6534 23.8901 12.5557 23.9389 12.3603 23.9389H11.6275V22.9618H12.3603C12.5557 22.9618 12.6534 23.0107 12.7023 23.0595C12.8 23.1573 12.8977 23.3038 12.8977 23.4504C12.8977 23.5969 12.8489 23.7435 12.7023 23.8412ZM13.0931 22.7664C12.9466 22.6198 12.7511 22.571 12.4092 22.571H11.1878V25.4534H11.6763V24.3786H12.458C12.8 24.3786 12.9954 24.2809 13.142 24.1832C13.3374 24.0366 13.4351 23.7924 13.4351 23.4992C13.3863 23.1573 13.2885 22.913 13.0931 22.7664ZM12.0183 26.4305H12.1649L11.9206 27.4076H11.7252L11.5298 26.626L11.3344 27.4076H11.1389L10.8947 26.4305H11.0901L11.2855 27.1634L11.4809 26.4305H11.6763L11.8718 27.1634L12.0183 26.4305ZM16.9527 26.8702V26.5771H17.1969C17.2947 26.5771 17.2947 26.5771 17.3435 26.626C17.3924 26.6748 17.3924 26.6748 17.3924 26.7237C17.3924 26.7725 17.3924 26.8214 17.3435 26.8214C17.2947 26.8702 17.2458 26.8702 17.1481 26.8702H16.9527ZM17.5389 26.7237C17.5389 26.626 17.5389 26.5771 17.4901 26.5282C17.4412 26.4794 17.3435 26.4305 17.1969 26.4305H16.8061V27.4076H17.0015V27.0168H17.0992L17.3924 27.4076H17.5878L17.2947 27.0168C17.4412 26.9679 17.5389 26.8702 17.5389 26.7237ZM20.9099 26.4305H21.1053V27.4076H20.9099L20.4702 26.6748V27.4076H20.2748V26.4305H20.4702L20.9099 27.1145V26.4305ZM19.2489 27.0168L19.3954 26.5771L19.542 27.0168H19.2489ZM19.3466 26.4305L18.9557 27.4076H19.1023L19.2 27.1634H19.5908L19.6885 27.4076H19.884L19.4931 26.4305H19.3466ZM17.0992 24.2809L17.5389 23.0595L17.9786 24.2809H17.0992ZM14.3145 23.9389V22.9618H15.145C15.3405 22.9618 15.4382 23.0107 15.487 23.0595C15.5847 23.1573 15.6824 23.3038 15.6824 23.4504C15.6824 23.5969 15.6336 23.7924 15.487 23.8412C15.4382 23.8901 15.3405 23.9389 15.145 23.9389H14.3145ZM17.2947 22.571L16.2687 25.3069L15.487 24.3298C15.9267 24.2321 16.171 23.9389 16.171 23.4504C16.171 23.1573 16.0733 22.9618 15.8779 22.7664C15.7313 22.6198 15.5359 22.571 15.1939 22.571H13.826V25.4534H14.3145V24.3786H14.9008L15.7802 25.4534H16.6595L16.9527 24.6718H18.1252L18.4183 25.4534H18.9069L17.8321 22.571H17.2947ZM22.1802 27.1634C22.1313 27.2122 22.0824 27.2611 21.9359 27.2611H21.7893V26.5771H21.9359C22.0824 26.5771 22.1313 26.626 22.1802 26.6748C22.229 26.7237 22.2779 26.8214 22.2779 26.9191C22.229 27.0168 22.229 27.1145 22.1802 27.1634ZM21.887 26.4305H21.5939V27.4076H21.887C22.0824 27.4076 22.229 27.3588 22.2779 27.2611C22.3756 27.1634 22.4244 27.0168 22.4244 26.8702C22.4244 26.7237 22.3756 26.5771 22.2779 26.5282C22.229 26.4794 22.1313 26.4305 21.887 26.4305ZM24.8672 25.0137H26.4794V25.4046H24.3786V22.5221H26.4305V22.9618H24.8672V23.7435H26.3817V24.1344H24.8672V25.0137ZM23.2061 22.571H23.6947V25.4534H23.2061V22.571ZM20.8122 23.9389V22.9618H21.6427C21.8382 22.9618 21.9359 23.0107 21.9847 23.0595C22.0824 23.1573 22.1802 23.3038 22.1802 23.4504C22.1802 23.5969 22.1313 23.7924 21.9847 23.8412C21.9359 23.8901 21.8382 23.9389 21.6427 23.9389H20.8122ZM22.6687 23.4504C22.6687 23.1573 22.571 22.9618 22.3756 22.7664C22.229 22.6198 22.0336 22.571 21.6916 22.571H20.3237V25.4534H20.8122V24.3786H21.3985L22.2779 25.4534H22.8641L21.9847 24.3298C22.4244 24.2321 22.6687 23.9389 22.6687 23.4504ZM15.7313 27.2611H16.2687V27.4076H15.5359V26.4305H16.2687V26.5771H15.7313V26.8214H16.2198V26.9679H15.7313V27.2611ZM10.5527 27.1145C10.5527 27.3099 10.3573 27.4076 10.1618 27.4076C9.8687 27.4076 9.72214 27.3099 9.72214 27.0657H9.91756C9.91756 27.2122 10.0153 27.2611 10.1618 27.2611C10.3084 27.2611 10.3573 27.2122 10.3573 27.1145C10.3573 27.0168 10.2107 26.9679 10.0641 26.9679C9.91756 26.9191 9.77099 26.8702 9.77099 26.6748C9.77099 26.4794 9.91756 26.3817 10.1618 26.3817C10.3573 26.3817 10.5527 26.4794 10.5527 26.6748H10.3573C10.3573 26.5771 10.2595 26.5282 10.1618 26.5282C10.0153 26.5282 9.96641 26.5771 9.96641 26.6748C9.96641 26.7725 10.113 26.8214 10.2595 26.8214C10.4061 26.8702 10.5527 26.9191 10.5527 27.1145ZM18.174 27.2611H18.6626V27.4076H17.9786V26.4305H18.174V27.2611ZM15.0962 26.5282V26.3817H14.3634V26.5282H14.9008L14.3634 27.2122V27.3588H15.145V27.2122H14.5588L15.0962 26.5282ZM30.9252 20.1771H18.6626V18.858C18.6626 18.858 18.7115 18.6626 18.858 18.6137H27.7496V14.1679H11.4321V18.5649H13.1908L13.3863 18.7603V20.1282H1.02595C2.83359 26.6748 8.84275 31.4626 15.9756 31.4626C23.1084 31.5115 29.1176 26.7237 30.9252 20.1771ZM11.2855 9.3313L9.57557 7.13282H6.44885L4.83664 9.18473V13.8748H5.71603V12.8H5.91145V12.6046H7.23053V12.8H7.42595V13.8748H8.69618V12.8H8.8916V12.6046H10.2107V12.8H10.4061V13.8748H11.3832V9.3313H11.2855ZM10.0641 13.0443H8.8916V13.8748H10.0641V13.0443ZM7.13282 13.0443H5.96031V13.8748H7.13282V13.0443ZM6.00916 18.5649H11.2855V13.9725H4.83664V17.0504C4.93435 17.0992 4.98321 17.1969 5.03206 17.2947C5.17863 17.5389 5.03206 17.9298 5.22748 18.1252C5.37405 18.2229 5.76489 18.1252 5.91145 18.2718C6.00916 18.3206 6.00916 18.4672 6.00916 18.5649ZM12.458 14.0702H13.5817V13.2397H12.458V14.0702ZM15.3893 14.0702H16.5618V13.2397H15.3893V14.0702ZM18.6137 14.0702H19.7863V13.2397H18.6137V14.0702ZM21.545 14.0702H22.6687V13.2397H21.545V14.0702ZM24.7206 14.0702H25.8443V13.2397H24.7206V14.0702ZM26.0886 12.9954V14.0702H27.7008V12.0183H23.0595V11.7252L23.8901 10.7481V9.77099V9.28244L22.0336 7.47481L20.226 9.3313H11.4321V14.0702H12.2137V12.9954H12.4092V12.8H13.6794V12.9954H13.8748V14.0702H15.145V12.9954H15.3405V12.8H16.6595V12.9954H16.855V13.3374V14.0702H18.3695V12.9954H18.5649V12.8H19.884V12.9954H20.0794V14.0702H21.3496V12.9954H21.545V12.8H22.8641V12.9954H22.9618V14.0702H24.4275V12.9954H24.6229V12.8H25.942V12.9954H26.0886ZM1.66107 10.0153C2.05191 10.113 1.66107 10.5038 1.80763 10.6015C1.9542 10.6992 2.63817 10.8947 2.58931 11.0901C2.58931 11.2366 2.44275 11.3344 2.39389 11.4809C2.34504 11.6275 2.34504 11.774 2.39389 11.9206C2.39389 12.2137 2.39389 12.458 2.34504 12.7511C2.29618 13.142 2.54046 13.2397 2.88244 13.3863C3.22443 13.5328 3.27328 13.6305 3.37099 13.9725C3.41985 14.2168 3.56641 14.4611 3.56641 14.7053C3.56641 15.0473 3.32214 15.0473 3.12672 15.1939C2.73588 15.4382 2.73588 15.9267 2.88244 16.171C3.02901 16.4641 3.02901 16.6595 3.41985 16.5618C3.76183 16.4641 3.95725 16.4641 4.25038 16.6107C4.34809 16.6595 4.49466 16.7573 4.64122 16.855V9.52672H3.56641V9.23359L4.29924 7.32824H5.81374L6.59542 6.35115H9.28244L10.0641 7.32824H20.9099L22.0336 6.15573L24.9649 9.03817H27.1634L27.6519 11.1389L28.3847 11.6763V11.9695H27.8473V16.6595C28.1405 16.4641 28.4336 16.1221 28.287 15.9267C28.287 15.8779 28.3359 15.6824 28.3847 15.6336C28.4824 15.5359 29.0198 15.4382 28.971 15.3405C28.9221 15.1939 28.8733 14.9008 28.8733 14.8031C28.8733 14.6076 29.0198 14.4611 29.1664 14.4122C29.2641 14.3634 29.7527 14.4611 29.9969 14.4122C30.0947 14.4122 30.0458 14.0214 30.0458 13.7771C30.0458 13.7282 29.6061 13.5817 29.655 13.4351C29.7038 13.1908 29.7038 12.5557 29.8504 12.5069C29.9969 12.458 30.2901 12.3603 30.3389 12.2137C30.3878 11.9695 30.2901 11.5786 30.4366 11.4809C30.5344 11.4321 30.6321 11.3832 30.7298 11.3344C28.8733 5.08092 22.9618 0.48855 15.9756 0.48855C9.52672 0.48855 4.00611 4.39695 1.66107 10.0153ZM32 15.9756C32 24.8183 24.8183 31.9511 16.0244 31.9511C7.23053 31.9511 0 24.8183 0 15.9756C0 7.13282 7.18168 0 15.9756 0C24.7695 0 32 7.18168 32 15.9756ZM7.13282 9.96641H5.96031V11.8718H7.13282V9.96641ZM7.18168 9.81985H7.3771V11.8718H7.27939V12.0183H5.81374V11.8718H5.71603V9.81985H5.91145V9.52672H7.23053V9.81985H7.18168ZM16.6107 10.2595H15.4382V12.1649H16.6107V10.2595ZM16.6595 10.0153H16.855V12.1649H16.7573V12.3115H15.2916V12.1649H15.1939V10.0153H15.3893V9.81985H16.7084V10.0153H16.6595ZM13.5817 10.2595H12.4092V12.1649H13.5817V10.2595ZM13.6305 10.0153H13.826V12.1649H13.7282V12.3115H12.2626V12.1649H12.1649V10.0153H12.3603V9.81985H13.6794V10.0153H13.6305ZM10.0641 9.96641H8.8916V11.8718H10.0641V9.96641ZM10.1618 9.81985H10.3573V11.8718H10.2595V12.0183H8.79389V11.8718H8.69618V9.81985H8.8916V9.52672H10.2107V9.81985H10.1618ZM8.20763 7.86565H7.71908V8.54962H8.20763V7.86565ZM8.40305 8.50076H8.45191V8.74504H7.47481V8.50076H7.52366V7.67023H8.40305V8.50076ZM10.2107 15.5359C10.2107 15.487 10.0153 15.2427 9.57557 15.2427C9.13588 15.2427 8.94046 15.487 8.94046 15.5359V17.3924H10.2107V15.5359ZM10.5527 17.5389H8.59847V15.5359C8.59847 15.2427 8.98931 14.9008 9.57557 14.9008C10.1618 14.9008 10.5038 15.2427 10.5527 15.5359V17.5389ZM19.7374 10.2107H18.5649V12.116H19.7374V10.2107ZM19.8351 9.96641H20.0305V12.116H19.9328V12.2626H18.4672V12.116H18.3695V9.96641H18.5649V9.77099H19.884V9.96641H19.8351ZM7.18168 15.5359C7.18168 15.487 6.98626 15.2427 6.54656 15.2427C6.10687 15.2427 5.91145 15.487 5.91145 15.5359V17.3924H7.18168V15.5359ZM7.52366 17.5389H5.56947V15.5359C5.56947 15.2427 5.96031 14.9008 6.54656 14.9008C7.13282 14.9008 7.47481 15.2427 7.52366 15.5359V17.5389ZM25.9908 15.5847H24.9649V17.4901H25.9908V15.5847ZM26.284 17.5878H24.7206V15.487H24.8672V15.1939H26.1863V15.487H26.3328V17.5878H26.284ZM22.8641 15.5847H21.8382V17.4901H22.8641V15.5847ZM23.1573 17.5878H21.5939V15.487H21.7405V15.1939H23.0595V15.487H23.2061V17.5878H23.1573ZM19.9817 15.5847H18.9557V17.4901H19.9817V15.5847ZM20.2748 17.5878H18.7115V15.487H18.858V15.1939H20.1771V15.487H20.3237V17.5878H20.2748ZM13.1908 15.5847H12.2137V17.4901H13.1908V15.5847ZM13.484 17.5878H11.9206V15.487H12.0672V15.1939H13.3863V15.487H13.5328V17.5878H13.484ZM22.6198 10.2107H21.4473V11.4809H22.6198V10.2107ZM22.6687 9.96641H22.8641V11.6275H21.2031V9.96641H21.3985V9.77099H22.7176V9.96641H22.6687ZM17.0992 19.0534H14.9985V19.2977H17.0992V19.0534ZM14.2168 21.1053H17.8321V20.8611H14.2168V21.1053ZM14.4122 20.6168H17.6366V20.3725H14.4122V20.6168ZM17.2458 19.4931H14.8519V19.7374H17.2458V19.4931ZM17.4412 19.9328H14.6076V20.1771H17.4412V19.9328ZM15.3893 16.9038C15.3893 16.855 15.5847 16.6107 15.9756 16.6107C16.3664 16.6107 16.5618 16.855 16.5618 16.9038V18.7603H16.9038V16.855C16.9038 16.5618 16.513 16.2687 15.9756 16.2687C15.4382 16.2687 15.0962 16.5618 15.0473 16.855V18.7603H15.3893V16.9038ZM17.8809 20.1771C18.174 20.1282 18.3695 19.884 18.3695 19.3466C18.3695 18.8092 17.9786 14.9985 17.7832 14.9985C17.6366 14.9985 17.5878 16.9038 17.5389 18.2229C17.5389 18.3206 17.4412 18.3695 17.4412 18.4672C17.4412 18.9069 17.4412 19.2489 17.4412 19.3954C17.4412 20.0794 17.8809 20.1771 17.8809 20.1771ZM13.6305 19.3954C13.6305 19.3466 13.6305 19.2489 13.6305 19.1023C13.6305 19.0534 13.6794 19.0534 13.6794 19.0046C13.7282 17.7832 13.8748 14.9985 14.0214 14.9985C14.1191 14.9985 14.1679 16.171 14.3145 17.1969C14.3145 17.2947 14.3634 17.2458 14.3634 17.3435C14.4611 18.2229 14.5588 19.1023 14.5588 19.3466C14.5588 19.884 14.3634 20.1282 14.0702 20.1771C14.1191 20.1771 13.6305 20.0794 13.6305 19.3954Z" fill="#4B4B4B"/>
</g>
<defs>
<clipPath id="clip0_1827_9109">
<rect width="32" height="32" fill="white"/>
</clipPath>
</defs>
</svg>
