<svg width="18" height="18" viewBox="0 0 18 18" fill="none" xmlns="http://www.w3.org/2000/svg">
<path d="M13 1H5C2.79086 1 1 2.79086 1 5V13C1 15.2091 2.79086 17 5 17H13C15.2091 17 17 15.2091 17 13V5C17 2.79086 15.2091 1 13 1Z" fill="#4B4B4B" stroke="#4B4B4B" stroke-width="1.6" stroke-linecap="round" stroke-linejoin="round"/>
<path d="M12.2013 8.49624C12.3001 9.16204 12.1863 9.84201 11.8763 10.4395C11.5663 11.0369 11.0758 11.5214 10.4746 11.824C9.87341 12.1266 9.19209 12.2319 8.52756 12.125C7.86303 12.0181 7.24914 11.7043 6.7732 11.2284C6.29726 10.7524 5.98351 10.1385 5.87658 9.47401C5.76965 8.80948 5.87498 8.12816 6.17759 7.52694C6.4802 6.92572 6.96468 6.43523 7.56212 6.12523C8.15956 5.81523 8.83953 5.70151 9.50533 5.80024C10.1845 5.90095 10.8132 6.21741 11.2987 6.70289C11.7842 7.18836 12.1006 7.8171 12.2013 8.49624Z" stroke="#EBEBEB" stroke-width="1.6" stroke-linecap="round" stroke-linejoin="round"/>
<path d="M13.3984 4.59961H13.4064" stroke="#EBEBEB" stroke-width="1.6" stroke-linecap="round" stroke-linejoin="round"/>
</svg>
