<svg width="211" height="28" viewBox="0 0 211 28" fill="none" xmlns="http://www.w3.org/2000/svg">
<path d="M71.6553 27.9822C70.9265 27.9822 70.3616 27.8364 69.9607 27.5449C69.5598 27.2533 69.3333 26.829 69.2812 26.2719H70.2809C70.3433 26.8706 70.8015 27.17 71.6553 27.17C72.0771 27.17 72.3842 27.0919 72.5769 26.9357C72.7695 26.7743 72.8658 26.5817 72.8658 26.3578C72.8658 25.9465 72.6159 25.6992 72.1161 25.6159L70.9525 25.4128C70.4423 25.3243 70.0596 25.1473 69.8045 24.8818C69.5546 24.6163 69.4296 24.2544 69.4296 23.7963C69.4296 23.4995 69.5103 23.2314 69.6717 22.9919C69.8331 22.7524 70.0674 22.565 70.3746 22.4296C70.687 22.289 71.054 22.2188 71.4757 22.2188C72.1421 22.2188 72.668 22.3697 73.0533 22.6717C73.4385 22.9685 73.6494 23.372 73.6858 23.8822H72.694C72.6159 23.3147 72.2098 23.0309 71.4757 23.0309C71.0905 23.0309 70.8093 23.1038 70.6323 23.2496C70.4553 23.3954 70.3668 23.5776 70.3668 23.7963C70.3668 24.1815 70.5985 24.4158 71.0618 24.4991L72.3504 24.7256C72.8242 24.8089 73.186 24.9911 73.4359 25.2723C73.6858 25.5482 73.8108 25.9101 73.8108 26.3578C73.8108 26.8889 73.6286 27.2923 73.2641 27.5683C72.9049 27.8442 72.3686 27.9822 71.6553 27.9822Z" fill="white"/>
<path d="M75.6619 22.3281H76.6537L77.8798 26.8186L79.0513 22.3281H80.2539L81.3941 26.8186L82.6515 22.3281H83.612L81.9798 27.8729H80.7772L79.637 23.5854L78.4734 27.8729H77.2707L75.6619 22.3281Z" fill="white"/>
<path d="M85.7901 22.3281H86.7272V27.8729H85.7901V22.3281Z" fill="white"/>
<path d="M90.9056 23.1247H89.0704V22.3281H93.678V23.1247H91.8428V27.8729H90.9056V23.1247Z" fill="white"/>
<path d="M95.6707 27.1544L98.9429 23.1247H95.7956V22.3281H100.169V23.0466L96.9046 27.0763H100.224V27.8729H95.6707V27.1544Z" fill="white"/>
<path d="M102.606 22.3281H106.605V23.1247H103.543V24.5928H106.448V25.3894H103.543V27.0763H106.652V27.8729H102.606V22.3281Z" fill="white"/>
<path d="M109.19 22.3281H111.775C112.171 22.3281 112.512 22.401 112.798 22.5468C113.09 22.6925 113.309 22.8956 113.454 23.1559C113.605 23.411 113.681 23.7052 113.681 24.0384C113.681 24.4653 113.561 24.8271 113.322 25.1239C113.087 25.4155 112.757 25.6055 112.33 25.694L113.985 27.8729H112.837L111.275 25.7487H110.127V27.8729H109.19V22.3281ZM111.689 24.9521C112.012 24.9521 112.259 24.8714 112.431 24.71C112.608 24.5486 112.697 24.3247 112.697 24.0384C112.697 23.752 112.608 23.5281 112.431 23.3668C112.259 23.2054 112.012 23.1247 111.689 23.1247H110.127V24.9521H111.689Z" fill="white"/>
<path d="M116.285 22.3281H117.223V27.0763H119.87V27.8729H116.285V22.3281Z" fill="white"/>
<path d="M123.876 22.3281H124.962L127.109 27.8729H126.086L125.594 26.4984H123.212L122.705 27.8729H121.697L123.876 22.3281ZM125.305 25.7018L124.415 23.234L123.501 25.7018H125.305Z" fill="white"/>
<path d="M129.286 22.3281H130.395L133.183 26.553V22.3281H134.057V27.8729H132.933L130.16 23.6479V27.8729H129.286V22.3281Z" fill="white"/>
<path d="M136.793 22.3281H138.964C139.495 22.3281 139.961 22.4452 140.362 22.6795C140.763 22.9138 141.072 23.2418 141.291 23.6635C141.51 24.08 141.619 24.5564 141.619 25.0927C141.619 25.6341 141.51 26.1157 141.291 26.5374C141.078 26.9591 140.77 27.2871 140.369 27.5214C139.969 27.7557 139.503 27.8729 138.972 27.8729H136.793V22.3281ZM138.933 27.0763C139.469 27.0763 139.888 26.8941 140.19 26.5296C140.497 26.1652 140.651 25.6862 140.651 25.0927C140.651 24.7074 140.58 24.3664 140.44 24.0696C140.304 23.7728 140.107 23.5412 139.846 23.3746C139.591 23.208 139.287 23.1247 138.933 23.1247H137.73V27.0763H138.933Z" fill="white"/>
<path d="M0.0703125 0.326172H2.85888V14.4549H10.7366V16.8252H0.0703125V0.326172Z" fill="white"/>
<path d="M15.2212 0.326172H18.4513L24.8418 16.8252H21.7976L20.3336 12.7353H13.2459L11.7355 16.8252H8.73776L15.2212 0.326172ZM19.4738 10.365L16.8246 3.02179L14.1058 10.365H19.4738Z" fill="white"/>
<path d="M32.0703 0.326172H39.4368C40.6142 0.326172 41.6289 0.543061 42.481 0.976838C43.3485 1.41062 43.9992 2.01481 44.433 2.78941C44.8822 3.56401 45.1069 4.45481 45.1069 5.46179C45.1069 7.02649 44.6034 8.2736 43.5964 9.20312C42.5894 10.1326 41.2029 10.5974 39.4368 10.5974H34.8589V16.8252H32.0703V0.326172ZM39.1812 8.22713C40.1417 8.22713 40.8853 7.987 41.412 7.50674C41.9543 7.011 42.2254 6.32935 42.2254 5.46179C42.2254 4.59424 41.9543 3.92033 41.412 3.44008C40.8853 2.94433 40.1417 2.69646 39.1812 2.69646H34.8589V8.22713H39.1812Z" fill="white"/>
<path d="M47.2758 0.326172H54.9676C56.145 0.326172 57.1598 0.543061 58.0118 0.976838C58.8794 1.41062 59.5301 2.01481 59.9638 2.78941C60.4131 3.54852 60.6377 4.42382 60.6377 5.41531C60.6377 6.68566 60.2814 7.76236 59.5688 8.64541C58.8716 9.51297 57.8879 10.0784 56.6176 10.3418L61.544 16.8252H58.128L53.4804 10.5045H50.0644V16.8252H47.2758V0.326172ZM54.712 8.13417C55.6725 8.13417 56.4084 7.89405 56.9196 7.41379C57.4464 6.93354 57.7097 6.26738 57.7097 5.41531C57.7097 4.56325 57.4464 3.89709 56.9196 3.41684C56.4084 2.93658 55.6725 2.69646 54.712 2.69646H50.0644V8.13417H54.712Z" fill="white"/>
<path d="M66.9473 0.326172H70.1773L76.5678 16.8252H73.5236L72.0596 12.7353H64.972L63.4615 16.8252H60.4638L66.9473 0.326172ZM71.1998 10.365L68.5507 3.02179L65.8318 10.365H71.1998Z" fill="white"/>
<path d="M77.932 0.326172H80.7205V16.8252H77.932V0.326172Z" fill="white"/>
<path d="M84.4395 0.326172H92.1314C93.3088 0.326172 94.3235 0.543061 95.1755 0.976838C96.0431 1.41062 96.6938 2.01481 97.1275 2.78941C97.5768 3.54852 97.8015 4.42382 97.8015 5.41531C97.8015 6.68566 97.4451 7.76236 96.7325 8.64541C96.0354 9.51297 95.0516 10.0784 93.7813 10.3418L98.7077 16.8252H95.2917L90.6441 10.5045H87.2281V16.8252H84.4395V0.326172ZM91.8757 8.13417C92.8362 8.13417 93.5721 7.89405 94.0834 7.41379C94.6101 6.93354 94.8735 6.26738 94.8735 5.41531C94.8735 4.56325 94.6101 3.89709 94.0834 3.41684C93.5721 2.93658 92.8362 2.69646 91.8757 2.69646H87.2281V8.13417H91.8757Z" fill="white"/>
<path d="M100.904 0.326172H103.693V16.8252H100.904V0.326172Z" fill="white"/>
<path d="M107.644 0.326172H119.542V2.69646H110.433V7.06522H119.077V9.4355H110.433V14.4549H119.681V16.8252H107.644V0.326172Z" fill="white"/>
<path d="M135.798 17.1497C134.141 17.1497 132.708 16.7934 131.499 16.0808C130.291 15.3526 129.369 14.3457 128.734 13.0598C128.099 11.7585 127.781 10.2635 127.781 8.57486C127.781 6.9327 128.099 5.46095 128.734 4.15962C129.385 2.85829 130.299 1.84356 131.476 1.11543C132.654 0.371809 134.032 0 135.612 0C137.611 0 139.207 0.488 140.4 1.464C141.592 2.42451 142.274 3.74133 142.444 5.41448H139.586C139.447 4.46946 139.052 3.73359 138.401 3.20686C137.75 2.68013 136.821 2.41676 135.612 2.41676C134.063 2.41676 132.847 2.98222 131.964 4.11314C131.097 5.22857 130.663 6.71581 130.663 8.57486C130.663 10.4494 131.104 11.9444 131.987 13.0598C132.87 14.1752 134.141 14.733 135.798 14.733C137.224 14.733 138.285 14.3921 138.982 13.7105C139.679 13.0133 140.028 11.9599 140.028 10.5501V10.3177H135.636V7.94743H142.747V16.8244H140.911L140.655 14.9886C140.175 15.6857 139.524 16.2202 138.703 16.592C137.882 16.9638 136.914 17.1497 135.798 17.1497Z" fill="white"/>
<path d="M146.183 0.325333H153.875C155.052 0.325333 156.067 0.542222 156.919 0.976C157.787 1.40978 158.437 2.01397 158.871 2.78857C159.32 3.54768 159.545 4.42298 159.545 5.41448C159.545 6.68483 159.189 7.76152 158.476 8.64457C157.779 9.51213 156.795 10.0776 155.525 10.341L160.451 16.8244H157.035L152.388 10.5036H148.972V16.8244H146.183V0.325333ZM153.619 8.13333C154.58 8.13333 155.316 7.89321 155.827 7.41295C156.354 6.9327 156.617 6.26654 156.617 5.41448C156.617 4.56241 156.354 3.89626 155.827 3.416C155.316 2.93575 154.58 2.69562 153.619 2.69562H148.972V8.13333H153.619Z" fill="white"/>
<path d="M169.95 17.1497C168.323 17.1497 166.913 16.7857 165.721 16.0575C164.528 15.3294 163.614 14.3147 162.978 13.0133C162.343 11.712 162.026 10.2248 162.026 8.55162C162.026 6.90946 162.343 5.44546 162.978 4.15962C163.614 2.85829 164.528 1.84356 165.721 1.11543C166.929 0.371809 168.339 0 169.95 0C171.561 0 172.963 0.371809 174.156 1.11543C175.364 1.84356 176.286 2.85829 176.921 4.15962C177.556 5.44546 177.874 6.90946 177.874 8.55162C177.874 10.2248 177.556 11.712 176.921 13.0133C176.286 14.3147 175.372 15.3294 174.179 16.0575C172.986 16.7857 171.577 17.1497 169.95 17.1497ZM164.907 8.55162C164.907 10.4262 165.341 11.9289 166.209 13.0598C167.092 14.1752 168.339 14.733 169.95 14.733C171.561 14.733 172.8 14.1752 173.668 13.0598C174.551 11.9289 174.993 10.4262 174.993 8.55162C174.993 6.70806 174.551 5.22857 173.668 4.11314C172.785 2.98222 171.546 2.41676 169.95 2.41676C168.354 2.41676 167.115 2.98222 166.232 4.11314C165.349 5.22857 164.907 6.70806 164.907 8.55162Z" fill="white"/>
<path d="M187.432 17.1497C186.131 17.1497 184.985 16.9018 183.993 16.4061C183.002 15.8949 182.227 15.1667 181.669 14.2217C181.127 13.2612 180.856 12.1148 180.856 10.7825V0.325333H183.645V10.5269C183.645 11.8127 183.978 12.7964 184.644 13.4781C185.31 14.1597 186.263 14.5006 187.502 14.5006C188.741 14.5006 189.686 14.1597 190.337 13.4781C191.003 12.781 191.336 11.7972 191.336 10.5269V0.325333H193.985V10.7825C193.985 12.0993 193.714 13.238 193.172 14.1985C192.645 15.159 191.886 15.8949 190.895 16.4061C189.903 16.9018 188.749 17.1497 187.432 17.1497Z" fill="white"/>
<path d="M197.811 0.325333H205.177C206.355 0.325333 207.369 0.542222 208.221 0.976C209.089 1.40978 209.74 2.01397 210.173 2.78857C210.623 3.56318 210.847 4.45397 210.847 5.46095C210.847 7.02565 210.344 8.27276 209.337 9.20229C208.33 10.1318 206.943 10.5966 205.177 10.5966H200.599V16.8244H197.811V0.325333ZM204.922 8.22629C205.882 8.22629 206.626 7.98616 207.152 7.5059C207.695 7.01016 207.966 6.32851 207.966 5.46095C207.966 4.5934 207.695 3.91949 207.152 3.43924C206.626 2.94349 205.882 2.69562 204.922 2.69562H200.599V8.22629H204.922Z" fill="white"/>
</svg>
