<svg width="21" height="15" viewBox="0 0 21 15" fill="none" xmlns="http://www.w3.org/2000/svg">
<path d="M19.5841 2.90289C19.4761 2.47149 19.2562 2.07622 18.9466 1.75702C18.637 1.43781 18.2486 1.20597 17.8207 1.0849C16.2572 0.703125 10.0033 0.703125 10.0033 0.703125C10.0033 0.703125 3.74947 0.703125 2.18601 1.12126C1.7581 1.24233 1.36971 1.47417 1.06008 1.79338C0.75045 2.11258 0.53054 2.50785 0.422562 2.93924C0.136425 4.52594 -0.0035406 6.13554 0.00442587 7.74781C-0.00577366 9.37222 0.134201 10.9941 0.422562 12.5927C0.541603 13.0107 0.76644 13.391 1.07535 13.6967C1.38426 14.0024 1.7668 14.2233 2.18601 14.338C3.74947 14.7561 10.0033 14.7561 10.0033 14.7561C10.0033 14.7561 16.2572 14.7561 17.8207 14.338C18.2486 14.2169 18.637 13.9851 18.9466 13.6659C19.2562 13.3467 19.4761 12.9514 19.5841 12.52C19.868 10.9453 20.008 9.34794 20.0022 7.74781C20.0124 6.1234 19.8725 4.50153 19.5841 2.90289Z" fill="#4B4B4B"/>
<path d="M7.95703 10.7202L13.1837 7.74779L7.95703 4.77539V10.7202Z" fill="#EBEBEB"/>
</svg>
