<svg width="23" height="13" viewBox="0 0 23 13" fill="none" xmlns="http://www.w3.org/2000/svg">
<path d="M23 0.804688C23 0.875 22.9766 0.96875 22.9531 1.03906C22.9297 1.10937 22.8828 1.15625 22.8359 1.22656L12.0313 12.0312C11.9141 12.1484 11.75 12.1953 11.5859 12.1953C11.4219 12.1953 11.2813 12.1484 11.1641 12.0312L0.382813 1.22656C0.265626 1.10937 0.195313 0.968748 0.195313 0.804686C0.195314 0.640623 0.265626 0.499998 0.382814 0.382811C0.500001 0.265623 0.617189 0.195311 0.781251 0.195311C0.945314 0.195311 1.10938 0.265623 1.22656 0.382811L11.6094 10.7422L21.9688 0.382812C22.0859 0.265625 22.2266 0.195312 22.3906 0.195312C22.5547 0.195312 22.7188 0.265625 22.8359 0.382812C22.8828 0.429687 22.9297 0.5 22.9531 0.570312C22.9766 0.640625 23 0.734375 23 0.804688Z" fill="#4B4B4B"/>
</svg>
